<svg class="icon" viewBox="0 0 1024 1024" xmlns="http://www.w3.org/2000/svg" width="200" height="200"><path d="M494.848 308.68l-58.994 117.987 66.418 132.835 76.345-38.115-47.36-94.72 54.784-109.568-27.278-94.863a213.333 213.333 0 0 1 379.904 133.32c0 147.484-140.374 317.155-426.667 503.893C225.707 672.739 85.333 503.04 85.333 355.556A213.333 213.333 0 0 1 405.59 170.894l42.838-73.785a297.444 297.444 0 0 0-149.76-40.22C133.717 56.889 0 190.606 0 355.556c0 188.842 165.006 383.857 489.045 590.62L512 960.825l22.955-14.649C858.994 739.385 1024 544.426 1024 355.556c0-164.95-133.717-298.667-298.667-298.667a298.382 298.382 0 0 0-248.889 133.49l-10.894 16.44 29.298 101.86z"/></svg>